<svg width="15" height="15" viewBox="0 0 15 15" fill="none" xmlns="http://www.w3.org/2000/svg">
<path d="M12.7961 2.18605C11.38 0.776024 9.49979 0 7.50015 0H7.48951C6.46983 0.00137329 5.48036 0.205421 4.54835 0.606308C3.64964 0.993004 2.84419 1.54461 2.15434 2.24602C0.735141 3.68889 -0.0296746 5.5917 0.000881411 7.6038C0.0193066 8.82545 0.340889 10.0349 0.930494 11.101C0.941595 11.121 0.944227 11.1435 0.937818 11.1627L0.0751543 13.7461C-0.0356256 14.0779 0.0441405 14.4428 0.283439 14.6982C0.466203 14.8935 0.718776 15 0.978903 15C1.05981 15 1.14141 14.9897 1.22175 14.9686L4.13762 14.2027C4.15478 14.1981 4.17332 14.2001 4.1898 14.2082C5.22642 14.7184 6.34017 14.977 7.49992 14.977C9.50174 14.977 11.3864 14.1935 12.8068 12.7711C14.2241 11.3519 15.003 9.47182 15 7.47746C14.9972 5.4776 14.2145 3.59837 12.7961 2.18605ZM12.1849 12.1501C10.9307 13.4062 9.26679 14.098 7.50004 14.098C6.47589 14.098 5.49272 13.8698 4.57787 13.4196C4.37176 13.3181 4.13613 13.2943 3.91434 13.3525L0.998587 14.1185C0.969862 14.126 0.945142 14.1189 0.924886 14.0974C0.895131 14.0656 0.905431 14.0347 0.908864 14.0245L1.77153 11.4409C1.85553 11.1891 1.82944 10.9102 1.69966 10.6756C1.17963 9.73526 0.896047 8.66833 0.879681 7.59041C0.852673 5.81543 1.52788 4.13624 2.78091 2.86228C4.03645 1.58581 5.70913 0.881424 7.49077 0.878906H7.50004C9.26553 0.878906 10.9257 1.56406 12.1759 2.80884C13.4278 4.05533 14.1187 5.71381 14.1212 7.47871C14.1237 9.23813 13.436 10.8971 12.1849 12.1501Z" fill="#2CDCF0"/>
<path d="M10.3402 5.35373L6.52166 9.41919C6.41573 9.53197 6.2435 9.53185 6.13769 9.41919L4.65967 7.84563C4.48892 7.66373 4.21191 7.66373 4.04117 7.84563C3.87031 8.02741 3.87031 8.32233 4.04117 8.50423L5.51919 10.0778C5.74267 10.3157 6.0362 10.4347 6.32973 10.4347C6.62326 10.4347 6.91679 10.3157 7.14016 10.0778L10.9588 6.0122C11.1297 5.83042 11.1297 5.5355 10.9588 5.3536C10.7881 5.17183 10.511 5.17183 10.3402 5.35373Z" fill="#2CDCF0"/>
</svg>
