<svg width="50" height="50" viewBox="0 0 50 50" fill="none" xmlns="http://www.w3.org/2000/svg">
<path d="M13.5775 35.5893L14.756 34.4107L5.34529 25L28.6786 1.66667H42.5V5H40.69C40.4934 4.44399 40.1066 3.97537 39.598 3.67697C39.0893 3.37858 38.4915 3.26961 37.9102 3.36934C37.329 3.46906 36.8017 3.77106 36.4216 4.22195C36.0415 4.67284 35.833 5.24359 35.833 5.83333C35.833 6.42307 36.0415 6.99383 36.4216 7.44472C36.8017 7.89561 37.329 8.1976 37.9102 8.29733C38.4915 8.39706 39.0893 8.28809 39.598 7.98969C40.1066 7.69129 40.4934 7.22268 40.69 6.66667H42.5V15.4881L26.0774 31.9107L27.256 33.0893L43.9226 16.4226C44 16.3452 44.0614 16.2533 44.1033 16.1522C44.1451 16.0511 44.1667 15.9428 44.1667 15.8333V11.6667H46.6667C47.5507 11.6667 48.3986 11.3155 49.0237 10.6904C49.6488 10.0652 50 9.21739 50 8.33333C50 7.44928 49.6488 6.60143 49.0237 5.97631C48.3986 5.35119 47.5507 5 46.6667 5H44.1667V0.833333C44.1667 0.61232 44.0789 0.400358 43.9226 0.244078C43.7663 0.0877973 43.5544 5.53256e-10 43.3334 5.53256e-10H28.3334C28.2239 -3.98703e-06 28.1156 0.0215474 28.0145 0.0634237C27.9134 0.1053 27.8215 0.166681 27.7441 0.244063L3.57748 24.4107C3.50009 24.4881 3.43871 24.58 3.39683 24.6811C3.35495 24.7822 3.33339 24.8906 3.33339 25C3.33339 25.1094 3.35495 25.2178 3.39683 25.3189C3.43871 25.42 3.50009 25.5119 3.57748 25.5893L13.5775 35.5893ZM37.5 5.83333C37.5003 5.6124 37.5882 5.40058 37.7444 5.24435C37.9006 5.08813 38.1124 5.00025 38.3334 5V6.66667C38.1124 6.66642 37.9006 6.57854 37.7444 6.42231C37.5882 6.26609 37.5003 6.05427 37.5 5.83333ZM46.6667 6.66667C47.1087 6.66667 47.5326 6.84226 47.8452 7.15482C48.1577 7.46738 48.3333 7.89131 48.3333 8.33333C48.3333 8.77536 48.1577 9.19928 47.8452 9.51184C47.5326 9.8244 47.1087 10 46.6667 10H44.1667V6.66667H46.6667Z" fill="#C02221"/>
<path d="M22.6236 16.4431C22.7495 16.8453 22.9693 17.2119 23.2649 17.5124C23.5605 17.8129 23.9234 18.0388 24.3236 18.1713C24.3347 18.5671 24.4367 18.9552 24.6216 19.3054C24.8065 19.6556 25.0694 19.9586 25.39 20.1911C25.7343 20.4515 26.1352 20.627 26.56 20.7034C26.9849 20.7798 27.4218 20.7549 27.8352 20.6307C28.0958 20.9541 28.4255 21.215 28.8001 21.3943C29.1747 21.5735 29.5847 21.6666 30 21.6666C30.4153 21.6666 30.8253 21.5735 31.2 21.3943C31.5746 21.215 31.9043 20.9541 32.1648 20.6307C32.5782 20.7549 33.0151 20.7798 33.44 20.7034C33.8649 20.627 34.2657 20.4515 34.61 20.1911C34.9306 19.9586 35.1935 19.6556 35.3784 19.3054C35.5633 18.9552 35.6653 18.5671 35.6765 18.1713C36.0766 18.0388 36.4395 17.8129 36.7351 17.5124C37.0307 17.2119 37.2506 16.8453 37.3765 16.4431C37.5014 16.063 37.5352 15.659 37.475 15.2635C37.4148 14.868 37.2624 14.4922 37.0301 14.1666C37.2624 13.8409 37.4148 13.4652 37.475 13.0697C37.5352 12.6742 37.5014 12.2701 37.3765 11.8901C37.2506 11.4878 37.0307 11.1213 36.7351 10.8208C36.4395 10.5203 36.0766 10.2944 35.6765 10.1619C35.6653 9.76604 35.5633 9.37803 35.3784 9.02783C35.1935 8.67763 34.9306 8.37459 34.61 8.14212C34.2657 7.88167 33.8649 7.70613 33.44 7.62975C33.0151 7.55337 32.5782 7.5783 32.1648 7.70253C31.9043 7.37913 31.5746 7.1182 31.2 6.93894C30.8253 6.75968 30.4153 6.66663 30 6.66663C29.5847 6.66663 29.1747 6.75968 28.8001 6.93894C28.4255 7.1182 28.0958 7.37913 27.8352 7.70253C27.4218 7.57834 26.9849 7.55342 26.56 7.6298C26.1352 7.70618 25.7343 7.8817 25.39 8.14212C25.0694 8.3746 24.8065 8.67763 24.6216 9.02784C24.4367 9.37804 24.3347 9.76604 24.3236 10.1619C23.9234 10.2944 23.5605 10.5203 23.2649 10.8208C22.9693 11.1213 22.7495 11.4878 22.6236 11.8901C22.4986 12.2701 22.4649 12.6742 22.525 13.0697C22.5852 13.4652 22.7376 13.8409 22.9699 14.1666C22.7376 14.4922 22.5852 14.868 22.525 15.2635C22.4649 15.659 22.4986 16.063 22.6236 16.4431ZM24.6156 13.4715C24.4354 13.3643 24.2973 13.1988 24.2241 13.0023C24.1509 12.8059 24.147 12.5903 24.2131 12.3914C24.2809 12.174 24.4202 11.9859 24.6084 11.8576C24.7966 11.7294 25.0227 11.6685 25.2498 11.6849C25.3859 11.6886 25.5208 11.6588 25.6428 11.5983C25.7647 11.5377 25.87 11.4482 25.9493 11.3375C26.0287 11.2269 26.0797 11.0985 26.0979 10.9636C26.1162 10.8287 26.1011 10.6913 26.054 10.5636C25.9805 10.371 25.9736 10.1593 26.0342 9.96227C26.0949 9.76525 26.2198 9.59418 26.3889 9.47628C26.5753 9.32985 26.8053 9.24992 27.0423 9.24919C27.2794 9.24845 27.5099 9.32695 27.6972 9.47222C27.8044 9.55182 27.9291 9.6045 28.0609 9.62583C28.1927 9.64716 28.3277 9.63653 28.4545 9.59481C28.5813 9.55309 28.6962 9.48152 28.7896 9.38612C28.883 9.29071 28.9521 9.17427 28.9911 9.0466C29.1517 8.52076 29.6176 8.33326 30 8.33326C30.3824 8.33326 30.8484 8.52076 31.009 9.0466C31.048 9.17427 31.1171 9.29071 31.2104 9.38612C31.3038 9.48152 31.4188 9.55309 31.5456 9.59481C31.6724 9.63653 31.8074 9.64716 31.9391 9.62583C32.0709 9.6045 32.1957 9.55182 32.3028 9.47222C32.4901 9.32683 32.7206 9.24825 32.9577 9.24899C33.1948 9.24973 33.4248 9.32973 33.6112 9.47628C33.7803 9.59418 33.9051 9.76525 33.9658 9.96227C34.0265 10.1593 34.0195 10.371 33.9461 10.5636C33.8989 10.6913 33.8839 10.8287 33.9021 10.9636C33.9204 11.0985 33.9714 11.2269 34.0507 11.3375C34.1301 11.4482 34.2353 11.5377 34.3573 11.5983C34.4792 11.6588 34.6141 11.6886 34.7502 11.6849C34.9773 11.6689 35.2032 11.7299 35.3913 11.8581C35.5794 11.9863 35.7188 12.1742 35.787 12.3914C35.853 12.5903 35.8491 12.8059 35.7759 13.0023C35.7027 13.1988 35.5646 13.3643 35.3845 13.4715C35.2696 13.5475 35.1754 13.6507 35.1101 13.772C35.0449 13.8933 35.0108 14.0289 35.0108 14.1666C35.0108 14.3043 35.0449 14.4399 35.1101 14.5612C35.1754 14.6825 35.2696 14.7857 35.3845 14.8617C35.5646 14.9689 35.7027 15.1344 35.7759 15.3309C35.8491 15.5273 35.853 15.7429 35.787 15.9418C35.7191 16.1592 35.5797 16.3472 35.3915 16.4754C35.2033 16.6037 34.9774 16.6646 34.7502 16.6483C34.6141 16.6446 34.4792 16.6744 34.3573 16.7349C34.2353 16.7955 34.1301 16.885 34.0507 16.9957C33.9714 17.1063 33.9204 17.2347 33.9021 17.3696C33.8839 17.5045 33.8989 17.6419 33.9461 17.7696C34.0195 17.9622 34.0265 18.1739 33.9658 18.3709C33.9051 18.5679 33.7803 18.739 33.6112 18.8569C33.4247 19.0033 33.1947 19.0833 32.9577 19.084C32.7206 19.0847 32.4901 19.0062 32.3028 18.861C32.1957 18.7814 32.0709 18.7287 31.9391 18.7074C31.8074 18.686 31.6724 18.6967 31.5456 18.7384C31.4188 18.7801 31.3038 18.8517 31.2104 18.9471C31.1171 19.0425 31.048 19.1589 31.009 19.2866C30.8484 19.8124 30.3824 19.9999 30 19.9999C29.6176 19.9999 29.1517 19.8124 28.9911 19.2866C28.9521 19.1589 28.883 19.0425 28.7896 18.9471C28.6962 18.8517 28.5813 18.7801 28.4545 18.7384C28.3277 18.6967 28.1927 18.686 28.0609 18.7074C27.9291 18.7287 27.8044 18.7814 27.6972 18.861C27.5099 19.0062 27.2794 19.0847 27.0423 19.0839C26.8053 19.0832 26.5753 19.0033 26.3889 18.8569C26.2198 18.739 26.0949 18.5679 26.0342 18.3709C25.9736 18.1739 25.9805 17.9622 26.054 17.7696C26.1011 17.6419 26.1162 17.5045 26.0979 17.3696C26.0797 17.2347 26.0287 17.1063 25.9493 16.9957C25.87 16.885 25.7647 16.7955 25.6428 16.7349C25.5208 16.6744 25.3859 16.6446 25.2498 16.6483C25.0226 16.6649 24.7965 16.6041 24.6083 16.4758C24.42 16.3475 24.2807 16.1593 24.2131 15.9418C24.147 15.7429 24.1509 15.5273 24.2241 15.3309C24.2973 15.1344 24.4354 14.9689 24.6156 14.8617C24.7304 14.7857 24.8247 14.6825 24.8899 14.5612C24.9551 14.4399 24.9892 14.3043 24.9892 14.1666C24.9892 14.0289 24.9551 13.8933 24.8899 13.772C24.8247 13.6507 24.7304 13.5475 24.6156 13.4715Z" fill="#C02221"/>
<path d="M12.7441 20.2439L7.74417 25.2439L8.92268 26.4224L13.9227 21.4224L12.7441 20.2439Z" fill="#C02221"/>
<path d="M15.2441 22.744L10.2441 27.744L11.4226 28.9225L16.4226 23.9225L15.2441 22.744Z" fill="#C02221"/>
<path d="M17.7441 25.244L12.7441 30.244L13.9226 31.4225L18.9226 26.4225L17.7441 25.244Z" fill="#C02221"/>
<path d="M20.2441 27.7439L15.2441 32.7439L16.4226 33.9224L21.4226 28.9224L20.2441 27.7439Z" fill="#C02221"/>
<path d="M22.7441 30.2441L20.2441 32.7441L21.4226 33.9226L23.9226 31.4226L22.7441 30.2441Z" fill="#C02221"/>
<path d="M18.9226 16.0777L17.7441 17.2562L19.7753 19.2874L20.9538 18.1089L18.9226 16.0777Z" fill="#C02221"/>
<path d="M22.0476 19.2027L20.8691 20.3812L26.0775 25.5895L27.256 24.411L22.0476 19.2027Z" fill="#C02221"/>
<path d="M8.96467 5.80859C9.82547 6.02282 10.6117 6.46741 11.2389 7.09465C11.8662 7.72189 12.3108 8.50811 12.525 9.36891C12.5701 9.54919 12.6741 9.70923 12.8206 9.82359C12.9671 9.93795 13.1476 10.0001 13.3334 10.0001C13.5193 10.0001 13.6998 9.93795 13.8462 9.82359C13.9927 9.70923 14.0968 9.54919 14.1419 9.36891C14.3561 8.50811 14.8007 7.72189 15.4279 7.09465C16.0551 6.46741 16.8414 6.02282 17.7022 5.80859C17.8824 5.76351 18.0425 5.65946 18.1568 5.51298C18.2712 5.3665 18.3333 5.18599 18.3333 5.00016C18.3333 4.81432 18.2712 4.63382 18.1568 4.48734C18.0425 4.34086 17.8824 4.2368 17.7022 4.19172C16.8414 3.9775 16.0551 3.5329 15.4279 2.90566C14.8007 2.27842 14.3561 1.49221 14.1419 0.631406C14.0968 0.451122 13.9927 0.291081 13.8462 0.176721C13.6998 0.0623609 13.5193 0.000244141 13.3334 0.000244141C13.1476 0.000244141 12.9671 0.0623609 12.8206 0.176721C12.6741 0.291081 12.5701 0.451122 12.525 0.631406C12.3108 1.49221 11.8662 2.27842 11.2389 2.90566C10.6117 3.5329 9.82547 3.9775 8.96467 4.19172C8.78439 4.2368 8.62435 4.34086 8.50999 4.48734C8.39563 4.63382 8.33351 4.81432 8.33351 5.00016C8.33351 5.18599 8.39563 5.3665 8.50999 5.51298C8.62435 5.65946 8.78439 5.76351 8.96467 5.80859ZM13.3334 2.93557C13.8572 3.77055 14.563 4.47633 15.398 5.00016C14.563 5.52398 13.8572 6.22976 13.3334 7.06474C12.8096 6.22976 12.1038 5.52398 11.2688 5.00016C12.1038 4.47633 12.8096 3.77055 13.3334 2.93557Z" fill="#C02221"/>
<path d="M39.8622 23.1259L33.5775 29.4106L34.756 30.5892L41.0407 24.3044L39.8622 23.1259Z" fill="#C02221"/>
<path d="M42.744 20.2441L41.0774 21.9107L42.2559 23.0892L43.9225 21.4226L42.744 20.2441Z" fill="#C02221"/>
<path d="M49.1667 33.3333H41.6667C41.4457 33.3333 41.2337 33.4211 41.0774 33.5774C40.9211 33.7336 40.8333 33.9456 40.8333 34.1666V34.9564C38.8109 33.503 36.4153 32.6577 33.9286 32.5199C31.4418 32.3822 28.9675 32.9578 26.7969 34.1789L25.3373 35H18.3334C17.5751 34.9996 16.8311 35.2063 16.1817 35.5978C15.5322 35.9892 15.002 36.5505 14.6481 37.2212C14.2942 37.8918 14.1301 38.6463 14.1736 39.4034C14.217 40.1604 14.4663 40.8913 14.8945 41.517L6.00622 37.1012C5.47457 36.838 4.89026 36.6985 4.29705 36.6931L3.93883 36.6904C3.05572 36.6836 2.19635 36.9761 1.50072 37.5201C0.805089 38.0642 0.314197 38.8278 0.108021 39.6865C-0.0981562 40.5453 -0.00746597 41.4485 0.365316 42.2491C0.738098 43.0497 1.371 43.7005 2.16091 44.0954L12.3864 49.2083C13.4283 49.7277 14.5764 49.9987 15.7406 50H49.1667C49.3877 50 49.5996 49.9122 49.7559 49.7559C49.9122 49.5996 50 49.3876 50 49.1666V34.1666C50 33.9456 49.9122 33.7336 49.7559 33.5774C49.5996 33.4211 49.3877 33.3333 49.1667 33.3333ZM13.1317 47.7175L2.90633 42.6046C2.45456 42.3788 2.09229 42.007 1.87819 41.5496C1.6641 41.0921 1.61072 40.5758 1.72671 40.0842C1.8427 39.5926 2.12127 39.1546 2.51728 38.8411C2.91329 38.5276 3.40354 38.357 3.90862 38.3569H3.92622L4.28424 38.3596C4.62451 38.3628 4.95967 38.4428 5.26466 38.5937L14.6292 43.2462C14.7445 43.3034 14.8714 43.3332 15.0001 43.3333H25.8334C26.0544 43.3333 26.2663 43.2455 26.4226 43.0892C26.5789 42.9329 26.6667 42.721 26.6667 42.5C26.6667 42.2789 26.5789 42.067 26.4226 41.9107C26.2663 41.7544 26.0544 41.6666 25.8334 41.6666H18.3334C17.6703 41.6666 17.0345 41.4032 16.5656 40.9344C16.0968 40.4655 15.8334 39.8297 15.8334 39.1666C15.8334 38.5036 16.0968 37.8677 16.5656 37.3989C17.0345 36.93 17.6703 36.6666 18.3334 36.6666H25.5556C25.6987 36.6666 25.8394 36.6298 25.9641 36.5596L27.614 35.6315C29.5957 34.5169 31.8652 34.0199 34.1314 34.2043C36.3975 34.3888 38.5568 35.2462 40.3322 36.6666L40.8333 37.0671V48.3333H15.7405C14.835 48.3322 13.9421 48.1214 13.1317 47.7175ZM48.3333 48.3333H42.5V35H48.3333V48.3333Z" fill="#C02221"/>
<path d="M45.4167 45.8334C45.6639 45.8334 45.9056 45.7601 46.1111 45.6227C46.3167 45.4854 46.4769 45.2901 46.5715 45.0617C46.6661 44.8333 46.6909 44.582 46.6427 44.3395C46.5944 44.097 46.4754 43.8743 46.3006 43.6995C46.1258 43.5247 45.903 43.4056 45.6605 43.3574C45.4181 43.3092 45.1667 43.3339 44.9383 43.4285C44.7099 43.5231 44.5147 43.6833 44.3774 43.8889C44.24 44.0945 44.1667 44.3361 44.1667 44.5834C44.167 44.9148 44.2989 45.2325 44.5332 45.4669C44.7675 45.7012 45.0853 45.833 45.4167 45.8334Z" fill="#C02221"/>
<path d="M17.256 19.4108L16.0775 20.5894L22.7441 27.256L23.9226 26.0775L17.256 19.4108Z" fill="#C02221"/>
</svg>
