<svg width="50" height="50" viewBox="0 0 50 50" fill="none" xmlns="http://www.w3.org/2000/svg">
<path d="M38.7097 17.7419V16.129C40.0435 16.129 41.129 15.0435 41.129 13.7096C41.129 12.3757 40.0435 11.2902 38.7097 11.2902H37.0968C36.6516 11.2902 36.2903 10.929 36.2903 10.4838C36.2903 10.0386 36.6516 9.67734 37.0968 9.67734H39.5161V10.4838H41.129V8.06444H38.7097V6.45154H37.0968V8.06444C35.7629 8.06444 34.6774 9.14993 34.6774 10.4838C34.6774 11.8177 35.7629 12.9032 37.0968 12.9032H38.7097C39.1548 12.9032 39.5161 13.2644 39.5161 13.7096C39.5161 14.1548 39.1548 14.5161 38.7097 14.5161H36.2903V13.7096H34.6774V16.129H37.0968V17.7419H38.7097Z" fill="#C02221"/>
<path d="M46.7742 12.0969C46.7742 7.20573 42.7944 3.22589 37.9032 3.22589C33.0121 3.22589 29.0323 7.20573 29.0323 12.0969C29.0323 16.988 33.0121 20.9678 37.9032 20.9678C42.7944 20.9678 46.7742 16.988 46.7742 12.0969ZM30.6452 12.0969C30.6452 8.09444 33.9008 4.83879 37.9032 4.83879C41.9056 4.83879 45.1613 8.09444 45.1613 12.0969C45.1613 16.0993 41.9056 19.3549 37.9032 19.3549C33.9008 19.3549 30.6452 16.0993 30.6452 12.0969Z" fill="#C02221"/>
<path d="M50 12.0968C50 5.42661 44.5734 0 37.9032 0C31.2331 0 25.8065 5.42661 25.8065 12.0968C25.8065 17.2323 29.0282 21.6194 33.5532 23.371L31.9242 25H25.4403L19.7952 31.4516H10.1315L0.214516 42.1944L1.39919 43.2887L10.8371 33.0645H20.5282L26.1734 26.6129H32.5927L35.3016 23.904C36.0403 24.0669 36.804 24.1573 37.5863 24.1774L33.5371 28.2258H26.2097L21.371 34.6774H11.7306L0 48.0839V50H46.7742V20.2935C48.7694 18.1355 50 15.2605 50 12.0968ZM27.4194 12.0968C27.4194 6.31613 32.1226 1.6129 37.9032 1.6129C43.6839 1.6129 48.3871 6.31613 48.3871 12.0968C48.3871 17.8774 43.6839 22.5806 37.9032 22.5806C32.1226 22.5806 27.4194 17.8774 27.4194 12.0968ZM40.3226 23.95V48.3871H37.0968V26.9468L40.0524 23.9911C40.1419 23.975 40.2339 23.9677 40.3226 23.95ZM34.2048 29.8387L35.4839 28.5597V48.3871H32.2581V29.8387H34.2048ZM11.2903 48.3871H8.06452V41.3169L11.2903 37.6306V48.3871ZM12.9032 36.2903H16.129V48.3871H12.9032V36.2903ZM17.7419 36.2903H20.9677V48.3871H17.7419V36.2903ZM22.5806 35.7524L25.8065 31.4516V48.3871H22.5806V35.7524ZM27.4194 29.8387H30.6452V48.3871H27.4194V29.8387ZM6.45161 43.1605V48.3871H1.87823L6.45161 43.1605ZM41.9355 48.3871V23.4879C43.104 23.0726 44.1887 22.4847 45.1613 21.7516V48.3871H41.9355Z" fill="#C02221"/>
<path d="M4.8387 29.8387H6.45161V26.6129H8.06451V16.9355H6.45161V13.7097H4.8387V16.9355H3.2258V26.6129H4.8387V29.8387ZM4.8387 18.5484H6.45161V25H4.8387V18.5484Z" fill="#C02221"/>
<path d="M11.2903 25.8065H12.9032V22.5807H14.5161V14.5162H12.9032V11.2903H11.2903V14.5162H9.6774V22.5807H11.2903V25.8065ZM11.2903 16.1291H12.9032V20.9678H11.2903V16.1291Z" fill="#C02221"/>
<path d="M17.7419 20.1613H19.3548V16.9355H20.9677V10.4839H19.3548V7.25812H17.7419V10.4839H16.129V16.9355H17.7419V20.1613ZM17.7419 12.0968H19.3548V15.3226H17.7419V12.0968Z" fill="#C02221"/>
</svg>
