<svg width="50" height="47" viewBox="0 0 50 47" fill="none" xmlns="http://www.w3.org/2000/svg">
<path d="M43.938 16.1301C44.5484 15.5198 44.5486 14.5318 43.9381 13.9212C43.9383 13.9215 43.938 13.921 43.938 13.921C43.643 13.626 43.2509 13.4635 42.8336 13.4635C41.4366 13.4635 40.7546 15.1556 41.7292 16.13C42.3382 16.7389 43.3291 16.739 43.938 16.1301ZM46.6625 11.1967C46.9879 11.5221 46.9878 12.0495 46.6625 12.3748C46.3371 12.7001 45.8098 12.7 45.4845 12.3748C44.0195 10.9098 41.6483 10.9095 40.1831 12.3747C39.8577 12.7001 39.3302 12.7 39.0049 12.3748C38.6796 12.0495 38.6795 11.5221 39.0049 11.1968C41.1208 9.08063 44.5461 9.08021 46.6625 11.1967ZM49.166 9.52631C48.9528 9.52631 48.7396 9.44498 48.577 9.28233C45.4028 6.10801 40.265 6.10748 37.0904 9.28233C36.7651 9.60753 36.2377 9.60753 35.9123 9.28233C35.5869 8.95703 35.5869 8.4296 35.9123 8.10419C39.7379 4.27863 45.9293 4.27853 49.7551 8.10419C50.2815 8.63068 49.9014 9.52631 49.166 9.52631ZM45.6367 19.1489C45.182 19.2187 44.8699 19.644 44.9398 20.0987C46.9284 33.0542 37.1355 44.6882 24.2625 45.1753V24.2625H35.2432C34.9918 31.827 31.367 37.3718 28.308 40.7316C27.819 41.2686 28.2074 42.1255 28.9237 42.1255C29.15 42.1255 29.3755 42.0338 29.54 41.8533C32.7976 38.2755 36.6598 32.359 36.9108 24.2625H40.9234C41.3835 24.2625 41.7565 23.8895 41.7565 23.4294C41.7565 22.9694 41.3835 22.5964 40.9234 22.5964H36.9102C36.5803 11.8085 29.8969 4.86322 26.2233 1.84614C28.9759 2.20164 31.6444 3.07915 34.0624 4.43577C34.4637 4.66121 34.9714 4.51814 35.1966 4.11681C35.4217 3.7156 35.2789 3.20786 34.8776 2.98273C31.3997 1.03142 27.441 0 23.4294 0C10.48 0 0 10.4789 0 23.4294C0 36.3764 10.4761 46.8573 23.4266 46.8589C37.7623 46.8589 48.7759 34.1074 46.5865 19.846C46.5166 19.3911 46.0912 19.0788 45.6367 19.1489ZM22.5964 44.4321C21.3662 43.5062 19.4111 41.8578 17.49 39.5014C13.7678 34.9359 11.7947 29.8128 11.6156 24.2624H22.5964V44.4321ZM29.3727 7.35893C33.0929 11.9245 35.0646 17.0472 35.2434 22.5964H24.2625V2.42281C25.4922 3.34843 27.4498 4.99891 29.3727 7.35893ZM22.5964 1.68359V22.5964H11.6159C11.8596 15.2814 15.2696 9.87025 18.1483 6.57795C18.4512 6.23161 18.4159 5.70533 18.0696 5.40252C17.7232 5.0996 17.197 5.1349 16.8941 5.48135C13.827 8.9891 10.1918 14.7653 9.94846 22.5964H1.68359C2.11271 11.2573 11.2573 2.11261 22.5964 1.68359ZM1.68359 24.2625H9.94866C10.2794 35.0547 16.9679 41.9995 20.6427 45.0149C10.2234 43.6774 2.08772 34.9427 1.68359 24.2625Z" fill="#C02221"/>
</svg>
